<?xml version="1.0" standalone="no"?><!DOCTYPE svg PUBLIC "-//W3C//DTD SVG 1.1//EN" "http://www.w3.org/Graphics/SVG/1.1/DTD/svg11.dtd"><svg t="1609817399480" class="icon" viewBox="0 0 1024 1024" version="1.1" xmlns="http://www.w3.org/2000/svg" p-id="2077" xmlns:xlink="http://www.w3.org/1999/xlink" width="200" height="200"><defs><style type="text/css"></style></defs><path d="M174.336 768l-119.168 119.168a42.666667 42.666667 0 0 0 60.330667 60.330667L234.666667 828.330667l119.168 119.168a42.666667 42.666667 0 0 0 60.330666-60.330667L294.997333 768l119.168-119.168a42.666667 42.666667 0 0 0-60.330666-60.330667L234.666667 707.669333l-119.168-119.168a42.666667 42.666667 0 0 0-60.330667 60.330667L174.336 768zM768 469.333333c-117.824 0-213.333333-95.509333-213.333333-213.333333S650.176 42.666667 768 42.666667s213.333333 95.509333 213.333333 213.333333-95.509333 213.333333-213.333333 213.333333z m0-85.333333a128 128 0 1 0 0-256 128 128 0 0 0 0 256zM554.666667 661.546667c0-59.093333 47.68-106.88 106.88-106.88h212.906666c59.093333 0 106.88 47.68 106.88 106.88v212.906666c0 59.093333-47.68 106.88-106.88 106.88h-212.906666A106.730667 106.730667 0 0 1 554.666667 874.453333v-212.906666z m85.333333 0v212.906666c0 12.032 9.536 21.546667 21.546667 21.546667h212.906666c12.032 0 21.546667-9.536 21.546667-21.546667v-212.906666c0-12.032-9.536-21.546667-21.546667-21.546667h-212.906666c-12.032 0-21.546667 9.536-21.546667 21.546667zM183.829333 109.888c36.117333-61.162667 108.245333-61.248 144.426667 0l126.208 213.653333c35.733333 60.522667 3.52 124.437333-66.816 124.437334H124.437333c-70.613333 0-102.634667-63.765333-66.816-124.437334L183.829333 109.909333zM133.653333 362.666667H378.453333l-122.410666-207.232L133.653333 362.666667z" p-id="2078"></path></svg>