<?xml version="1.0" standalone="no"?><!DOCTYPE svg PUBLIC "-//W3C//DTD SVG 1.1//EN" "http://www.w3.org/Graphics/SVG/1.1/DTD/svg11.dtd"><svg t="1609817799404" class="icon" viewBox="0 0 1024 1024" version="1.1" xmlns="http://www.w3.org/2000/svg" p-id="1515" xmlns:xlink="http://www.w3.org/1999/xlink" width="200" height="200"><defs><style type="text/css"></style></defs><path d="M875.975111 823.978667a36.010667 36.010667 0 1 1 0 72.021333H148.024889a36.010667 36.010667 0 1 1 0-72.021333h727.950222z m-745.585778-466.488889c3.242667 0 6.428444 0.910222 9.272889 2.503111L374.499556 496.071111a18.432 18.432 0 0 1 0 31.857778l-234.837334 136.078222a18.432 18.432 0 0 1-27.648-15.928889V375.921778c0-10.126222 8.248889-18.375111 18.375111-18.375111z m745.585778 234.496a36.010667 36.010667 0 1 1 0 72.021333h-391.964444a36.010667 36.010667 0 1 1 0-72.021333h391.964444z m0-231.992889a36.010667 36.010667 0 1 1 0 72.021333h-391.964444a36.010667 36.010667 0 0 1 0-72.021333h391.964444z m0-231.992889a36.010667 36.010667 0 1 1 0 72.021333H148.024889a36.010667 36.010667 0 0 1 0-72.021333h727.950222z" p-id="1516"></path></svg>