<?xml version="1.0" standalone="no"?><!DOCTYPE svg PUBLIC "-//W3C//DTD SVG 1.1//EN" "http://www.w3.org/Graphics/SVG/1.1/DTD/svg11.dtd"><svg t="1609817380894" class="icon" viewBox="0 0 1024 1024" version="1.1" xmlns="http://www.w3.org/2000/svg" p-id="1933" xmlns:xlink="http://www.w3.org/1999/xlink" width="200" height="200"><defs><style type="text/css"></style></defs><path d="M384 64c17.6 0 32 14.4 32 32v288c0 17.6-14.4 32-32 32H96c-17.6 0-32-14.4-32-32V96c0-17.6 14.4-32 32-32h288m0-64H96C43 0 0 43 0 96v288c0 53 43 96 96 96h288c53 0 96-43 96-96V96c0-53-43-96-96-96zM928 64c17.6 0 32 14.4 32 32v288c0 17.6-14.4 32-32 32H640c-17.6 0-32-14.4-32-32V96c0-17.6 14.4-32 32-32h288m0-64H640c-53 0-96 43-96 96v288c0 53 43 96 96 96h288c53 0 96-43 96-96V96c0-53-43-96-96-96zM384 608c17.6 0 32 14.4 32 32v288c0 17.6-14.4 32-32 32H96c-17.6 0-32-14.4-32-32V640c0-17.6 14.4-32 32-32h288m0-64H96c-53 0-96 43-96 96v288c0 53 43 96 96 96h288c53 0 96-43 96-96V640c0-53-43-96-96-96zM928 608c17.6 0 32 14.4 32 32v288c0 17.6-14.4 32-32 32H640c-17.6 0-32-14.4-32-32V640c0-17.6 14.4-32 32-32h288m0-64H640c-53 0-96 43-96 96v288c0 53 43 96 96 96h288c53 0 96-43 96-96V640c0-53-43-96-96-96z" p-id="1934"></path></svg>